<svg width="20" height="20" viewBox="0 0 20 20" fill="none" xmlns="http://www.w3.org/2000/svg">
<path d="M13.81 13.9517C14.1984 11.9127 14.9634 7.48897 15.1399 5.66879C15.1517 5.50751 15.1282 5.30014 15.1399 5.23102C15.1282 5.13886 15.0929 5.01214 14.9752 4.91998C14.8339 4.80478 14.6103 4.78174 14.5162 4.78174C14.0689 4.78174 13.3981 5.01214 10.1262 6.34847C8.9846 6.80928 6.70136 7.77697 3.26473 9.24002C2.71157 9.4589 2.41734 9.66627 2.3938 9.87363C2.34673 10.2768 2.92342 10.4036 3.66488 10.634C4.26512 10.8298 5.06543 11.0487 5.48912 11.0602C5.86574 11.0717 6.28943 10.9104 6.7602 10.5994C9.97322 8.47969 11.6209 7.40832 11.7268 7.38528C11.8092 7.37376 11.9034 7.35072 11.974 7.40832C12.0003 7.43559 12.0194 7.46873 12.0297 7.50487C12.0399 7.541 12.041 7.57904 12.0328 7.61569C11.974 7.85761 8.96106 10.5418 8.78452 10.7146C8.11367 11.3828 7.36044 11.7975 8.5256 12.5463C9.52598 13.1914 10.1144 13.6061 11.1501 14.2743C11.8092 14.7006 12.3271 15.1959 13.0097 15.1383C13.3157 15.1038 13.6452 14.8158 13.81 13.9517Z" fill="#EEBC6B"/>
</svg>
