<?xml version="1.0" encoding="UTF-8"?> <svg xmlns="http://www.w3.org/2000/svg" width="100" height="100" viewBox="0 0 100 100" fill="none"><path d="M33.4 52.2629C33.4 50.0064 40.0949 48.1494 48.6864 47.9179M67.6 52.2629C67.6 50.0064 60.9051 48.1494 52.3136 47.9179M22.1295 49.8213C26.9567 68.4433 23.425 81.5628 50.5 81.5628C77.575 81.5628 74.073 68.4153 79 49.8213M64.4909 79.7637L69.9317 90.1593C66.307 91.9806 60.4765 93 50.4999 93C40.5232 93 34.6929 91.9806 31.0682 90.1593L36.25 79.7637M67.9886 86.6109C64.3096 87.9148 58.8606 88.6307 50.4999 88.6307C42.1391 88.6307 36.6903 87.9148 33.0112 86.6109M36.1204 74.9849C30.4264 72.0355 29.9187 66.555 28.2669 59.5879M48.6864 43.2921V41.5875L45.3534 39.0653L44.0442 38.0746L46.2442 35.2138L48.6864 37.0618V19.8789H35.4727V16.2807H48.6864V12.4254H44.5409V8.82718H48.6864V6H52.3136V8.82718H56.4591V12.4254H52.3136V16.2807H65.5273V19.8789H52.3136V38.9186M52.3136 38.9186V39.8069L56.9558 43.3201L56.7616 43.5725M52.3136 38.9186C67.2087 39.256 79 43.7206 79 49.1787C79 54.8566 66.2401 59.4594 50.5 59.4594C34.7599 59.4594 22 54.8566 22 49.1787C22 44.1348 32.0699 39.9392 45.3534 39.0653M56.7616 43.5725L54.7558 46.1806L52.3136 44.3323V47.9179M56.7616 43.5725C64.5669 44.3579 70.1909 46.5711 70.1909 49.1787C70.1909 52.4435 61.375 55.0901 50.5 55.0901C39.625 55.0901 30.8091 52.4435 30.8091 49.1787C30.8091 46.0975 38.6615 43.5669 48.6864 43.2921M48.6864 43.2921V47.9179M48.6864 47.9179V51.2349H52.3136V47.9179" stroke="#EEBC6B"></path></svg> 