<?xml version="1.0" encoding="UTF-8"?> <svg xmlns="http://www.w3.org/2000/svg" width="100" height="100" viewBox="0 0 100 100" fill="none"><path d="M20.4023 30.8114C25.1792 28.8465 29.8113 28.3553 31.6207 28.3553C33.4301 28.3553 38.2432 28.8465 43.0201 30.8114M21.3021 33.6627C11.724 37.709 5 47.2117 5 58.2895C5 73.0413 16.9238 85 31.6327 85C46.3415 85 58.2653 73.0413 58.2653 58.2895C58.2653 52.3304 56.3196 46.827 53.0305 42.3837M21.3021 33.6627L21.8159 34.9561C25.9625 33.3596 29.9834 32.9605 31.5541 32.9605C33.1248 32.9605 37.3028 33.3596 41.4494 34.9561L41.9632 33.6627M21.3021 33.6627L16.6327 21.9079L23.2295 24.9781V17.7632L28.5698 22.5219L31.7112 15L34.6955 22.5219L40.0358 17.7632V24.9781L46.6327 21.9079L41.9632 33.6627M41.9632 33.6627C44.9613 34.9293 47.6798 36.7305 50 38.9473M46.9388 42.3837C42.9742 38.5453 37.5783 36.1842 31.6327 36.1842C19.4598 36.1842 9.59184 46.0811 9.59184 58.2895C9.59184 70.4979 19.4598 80.3947 31.6327 80.3947C43.8055 80.3947 53.6735 70.4979 53.6735 58.2895C53.6735 53.8113 52.3457 49.6441 50.0635 46.1623M57.137 30.8114C61.9139 28.8465 66.546 28.3553 68.3554 28.3553C70.1648 28.3553 74.9779 28.8465 79.7548 30.8114M58.0368 33.6627C48.4587 37.709 41.7347 47.2117 41.7347 58.2895C41.7347 64.23 43.6683 69.7175 46.9388 74.1536M58.0368 33.6627L58.5506 34.9561C62.6972 33.3596 66.7181 32.9605 68.2888 32.9605C69.8595 32.9605 74.0375 33.3596 78.1841 34.9561L78.6979 33.6627M58.0368 33.6627L53.3673 21.9079L59.9642 24.9781V17.7632L65.3045 22.5219L68.4459 15L71.4302 22.5219L76.7705 17.7632V24.9781L83.3673 21.9079L78.6979 33.6627M78.6979 33.6627C88.276 37.709 95 47.2117 95 58.2895C95 73.0413 83.0762 85 68.3673 85C61.2465 85 54.7784 82.1972 49.9999 77.6316M49.9365 70.4167C47.6543 66.9349 46.3265 62.7677 46.3265 58.2895C46.3265 46.0811 56.1945 36.1842 68.3673 36.1842C80.5402 36.1842 90.4082 46.0811 90.4082 58.2895C90.4082 70.4979 80.5402 80.3947 68.3673 80.3947C62.4002 80.3947 56.9869 78.0165 53.0183 74.1536" stroke="#EEBC6B"></path></svg> 