<?xml version="1.0" encoding="UTF-8"?> <svg xmlns="http://www.w3.org/2000/svg" width="130" height="94" viewBox="0 0 130 94" fill="none"><path d="M42.769 0.722541H42.1052V1.22518H42.769V2.73309H41.0621V3.23573H42.769V8.19927L42.4877 8.05791L42.2032 7.91654L42.0894 8.13016C41.9566 8.38148 41.9313 8.34378 42.4308 8.5951L42.769 8.76474V10.7407L42.6805 10.7879C42.5383 10.8601 42.3644 11.0737 42.3265 11.2214C42.2791 11.391 42.3043 11.5952 42.396 11.7523L42.4624 11.8717L41.8049 13.6623L41.5678 13.7471C40.1612 14.2435 39.0959 15.4875 38.7956 16.986C38.7197 17.3693 38.7197 18.1955 38.7987 18.5819C38.9252 19.2133 39.1591 19.7882 39.5037 20.3066C39.7471 20.6772 40.335 21.2773 40.6416 21.472L40.8376 21.5977L40.825 22.8449L40.0031 23.1716L39.1812 23.4952L39.1939 25.5465L39.2034 27.5979L38.8145 27.6576C36.6872 27.9781 34.31 28.6912 32.3249 29.6116C29.9604 30.7049 27.7477 32.2756 26.164 33.9846L25.7594 34.4212L24.6151 35.0652L23.4708 35.7124L22.6742 35.8883C22.2348 35.9857 21.865 36.0642 21.8555 36.0642C21.8334 36.0642 21.8618 36.4789 21.8966 36.6988C21.9124 36.8056 21.925 36.8182 22.0041 36.8182H22.0957V45.5138L21.963 45.5641C21.8871 45.5924 21.2233 45.7557 20.4836 45.9316C19.7439 46.1044 19.1338 46.2521 19.1275 46.2615C19.118 46.2678 19.137 46.4374 19.1686 46.6353L19.2255 46.9966L19.3741 46.9809C19.7439 46.9369 20.0948 46.9024 20.177 46.9024H20.2623V52.6513H18.7608L17.1961 55.3687L17.6703 55.3781C17.9295 55.3812 18.1444 55.3906 18.1476 55.3938C18.1476 55.3969 18.1824 56.5718 18.2235 58.0075C18.274 59.6662 18.2898 60.6181 18.2709 60.6306C18.2551 60.6401 14.1362 62.104 9.11963 63.8821L0 67.1178V68.3587H2.01359L2.00095 69.1064C1.95669 71.7295 1.73858 90.4276 1.73858 91.6905V93.2392H128.405L128.389 82.8818C128.377 77.1831 128.361 71.541 128.351 70.3441L128.335 68.1702H129.097V67.7147L128.339 67.1932V56.3802L129.097 56.4242V55.9812L128.339 55.4786V51.3947H129.1L129.082 50.4428L128.127 49.9841L127.169 49.5255V44.6468C127.169 41.9671 127.163 39.7712 127.16 39.7712C127.134 39.7712 125.155 39.4885 125.076 39.4759L124.988 39.457V49.2585H121.827V34.6568L122.01 34.6694C122.108 34.6788 122.753 34.726 123.439 34.7762C124.125 34.8265 125.162 34.905 125.74 34.9521L126.79 35.0401V36.1271L126.704 36.1459C126.372 36.2182 126.082 36.4255 125.816 36.7711C125.424 37.2831 124.988 38.3795 124.988 38.8476C124.988 38.9764 125.001 39.0801 125.016 39.0801C125.051 39.0801 126.948 39.3534 127.084 39.3785L127.169 39.3942V35.659C127.169 33.2903 127.156 31.8044 127.137 31.6002C127.002 30.2588 126.442 28.9142 125.579 27.8493L125.399 27.6293V26.4921L123.436 25.1319H121.735L121.173 24.9465C120.487 24.7172 119.851 24.5601 119.149 24.4439L118.618 24.3559L118.606 22.1003L118.249 21.7611C117.951 21.4815 117.901 21.4186 117.942 21.3935C118.41 21.1202 118.795 20.6081 118.941 20.0741C119.017 19.7913 119.017 19.1662 118.938 18.8646C118.814 18.3997 118.584 18.0227 118.268 17.7777L118.081 17.6331L117.575 16.386L117.073 15.142L117.19 15.0383C117.253 14.9786 117.319 14.8938 117.338 14.8467C117.411 14.6519 117.354 14.3723 117.215 14.2498C117.149 14.1901 117.149 14.1744 117.149 13.0937C117.149 12.4937 117.158 12.0005 117.168 12.0005C117.18 12.0005 117.291 12.057 117.417 12.1261C117.544 12.1952 117.661 12.2518 117.683 12.2518C117.714 12.2518 117.907 11.9062 117.907 11.8465C117.907 11.8308 117.736 11.7272 117.528 11.6203L117.149 11.4224V6.18872H118.856V5.68609H117.149V4.17817H117.812V3.67554H117.149V2.95299H116.643V3.67554H115.979V4.17817H116.643V5.68609H114.936V6.18872H116.643V11.1523L116.361 11.0109L116.077 10.8695L115.963 11.0832C115.83 11.3345 115.805 11.2968 116.305 11.5481L116.643 11.7177V14.1587L116.561 14.1995C116.516 14.2246 116.444 14.3032 116.403 14.3754C116.27 14.6016 116.317 14.8561 116.526 15.0351C116.586 15.0917 116.652 15.1388 116.674 15.1482C116.7 15.1545 116.567 15.5786 116.279 16.4048L115.846 17.6489L115.691 17.7462C115.337 17.9756 114.948 18.5442 114.844 18.984C114.626 19.8982 115.015 20.8752 115.786 21.3464L115.979 21.4658L115.691 21.7359C115.53 21.8836 115.382 22.0187 115.359 22.0312C115.325 22.0532 115.315 22.27 115.315 23.2156V24.3779L115.246 24.3936C115.204 24.3999 115.081 24.4219 114.967 24.4407C114.458 24.5287 113.678 24.7518 113.046 24.9936L112.685 25.1319H110.969L109.935 25.8136L108.901 26.4984L108.898 27.1079V27.7142L108.636 28.0189C107.552 29.2629 106.976 30.4378 106.815 31.729C106.793 31.9018 106.78 33.2589 106.78 35.5804V39.1649L107.359 39.0612C107.675 39.0015 108.102 38.9261 108.307 38.8884L108.677 38.8225V38.6999C108.677 38.546 108.443 37.836 108.269 37.4653C108.013 36.9124 107.608 36.4161 107.283 36.2527L107.16 36.1899V35.703C107.16 35.4359 107.172 35.216 107.185 35.216C107.201 35.216 107.359 35.194 107.542 35.1689C108.222 35.0747 111.474 34.7134 111.639 34.7134C111.645 34.7134 111.648 37.9868 111.648 41.9859V49.2585H108.677V44.229C108.677 39.457 108.674 39.2026 108.623 39.2183C108.592 39.2277 108.241 39.2905 107.839 39.3628C107.441 39.4319 107.036 39.5042 106.948 39.523L106.78 39.5544L106.764 49.5789L105.889 50.025L105.01 50.4679V51.3947H105.642V55.5666L105.326 55.7928L105.01 56.0158V56.4273L105.326 56.4053L105.642 56.3802V60.3793H71.3449V55.3844L71.8981 55.3781L72.4481 55.3687L70.8866 52.6513H69.8276L69.8118 37.0224L69.7391 36.8025C69.5147 36.1365 69.0247 35.6056 68.4115 35.3574C67.9531 35.1721 67.3304 35.1406 66.872 35.282C66.2398 35.4736 65.7246 35.8946 65.4559 36.4412C65.1998 36.9658 65.2125 36.6643 65.2125 41.5964C65.2125 45.0771 65.203 45.963 65.1745 45.9536C65.1524 45.9442 64.9153 45.8908 64.6498 45.8311L64.1662 45.7243L64.1851 36.0705L63.711 35.97C62.7121 35.7595 62.8986 35.838 61.356 34.9679L59.9493 34.1731L59.4752 33.6987C59.216 33.4348 58.8651 33.0987 58.7007 32.951C55.6535 30.2148 51.601 28.3645 47.0839 27.6513L46.9258 27.6293L46.9195 23.4889L46.164 23.2124C45.7467 23.0585 45.3484 22.9108 45.2757 22.8826L45.1398 22.8323V21.6134L45.3073 21.5317C45.772 21.2993 46.2367 20.8846 46.5433 20.4228C46.9037 19.8856 47.185 19.2102 47.3083 18.5819C47.3905 18.1829 47.3873 17.3661 47.3083 16.9797C47.0775 15.8771 46.4927 14.966 45.5887 14.3C45.2694 14.0644 44.7257 13.788 44.3685 13.6812L44.1061 13.6026L43.79 12.745L43.4739 11.8905L43.5466 11.8026C43.6257 11.7115 43.6857 11.5355 43.6857 11.4036C43.6857 11.2182 43.6162 11.0706 43.4455 10.9072L43.2748 10.7439V9.89567C43.2748 9.42759 43.2843 9.04747 43.2938 9.04747C43.3064 9.04747 43.417 9.10402 43.5435 9.17313C43.6699 9.24225 43.7869 9.29879 43.809 9.29879C43.8406 9.29879 44.0334 8.95323 44.0334 8.89354C44.0334 8.87783 43.8627 8.77416 43.6541 8.66735L43.2748 8.46944V3.23573H44.9818V2.73309H43.2748V1.22518H43.9386V0.722541H43.2748V0H42.769V0.722541ZM116.263 22.5087C116.747 22.5747 117.382 22.5684 117.828 22.493C118.03 22.4585 118.204 22.4302 118.211 22.4302C118.217 22.4302 118.223 22.8543 118.223 23.3726V24.3151L118.043 24.2931C117.79 24.2617 116.551 24.2617 116.083 24.2931L115.694 24.3182V22.4208L115.815 22.4428C115.878 22.4553 116.08 22.4836 116.263 22.5087ZM46.5496 23.957C46.5402 24.0386 46.5307 24.8837 46.5307 25.8387V27.5697L46.224 27.532C44.3369 27.2932 42.2474 27.2744 40.2244 27.4723C39.9652 27.5005 39.7123 27.5288 39.6649 27.5382L39.5764 27.5571V25.9706C39.5764 25.1005 39.5669 24.2585 39.5574 24.1015L39.5353 23.8124H46.5718L46.5496 23.957ZM117.395 26.0303C117.724 26.0963 118.037 26.2031 118.517 26.4105L118.919 26.5864V31.0064H114.999V26.5864L115.369 26.4199C116.276 26.0178 116.823 25.9141 117.395 26.0303ZM110.163 26.6021C110.103 26.6492 109.929 26.7937 109.774 26.9225C109.619 27.0513 109.442 27.199 109.385 27.2461L109.278 27.3372V26.7811L109.682 26.6492C109.903 26.5801 110.128 26.5204 110.178 26.5204L110.273 26.5173L110.163 26.6021ZM124.688 26.6806L125.004 26.7874L125.023 27.221L124.918 27.1267C124.726 26.9508 124.498 26.7497 124.372 26.6429C124.232 26.5267 124.226 26.5267 124.688 26.6806ZM121.448 33.6924L120.841 33.6547C117.329 33.438 115.606 33.4442 112.628 33.6924C112.325 33.7175 112.066 33.7395 112.053 33.7395C112.04 33.7395 112.028 33.3657 112.028 32.907V32.0746H112.179C112.262 32.0746 112.606 32.0588 112.944 32.04C113.886 31.9897 115.818 31.9615 118.77 31.9552L121.448 31.9489V33.6924ZM125.165 32.1688C126.044 32.2882 126.768 32.3887 126.774 32.3887C126.783 32.3887 126.79 32.7751 126.79 33.2432V34.1008L125.772 34.016C125.209 33.972 124.112 33.8872 123.328 33.8338C122.548 33.7772 121.887 33.727 121.868 33.7207C121.836 33.7113 121.827 33.5071 121.827 32.8285V31.9489H123.572L125.165 32.1688ZM111.648 33.7678L111.547 33.7835C111.49 33.7929 111.272 33.8149 111.064 33.8338C110.412 33.8935 108.984 34.0505 108.073 34.1636C107.593 34.2233 107.191 34.2736 107.179 34.2736C107.169 34.2736 107.16 33.8495 107.16 33.3311V32.3887H107.232C107.27 32.3887 107.906 32.3447 108.645 32.2945C110.061 32.1939 111.247 32.1185 111.5 32.1091L111.648 32.106V33.7678ZM44.8427 34.8296L46.8152 36.0171V36.6925H46.6255V44.1473L46.3347 44.1253C45.105 44.0436 41.8302 44.0279 39.8387 44.097L39.2286 44.1159V36.6925H38.9125V36.0171L40.8819 34.8328C41.963 34.1793 42.8544 33.6484 42.8575 33.6453C42.8638 33.6453 43.7584 34.1793 44.8427 34.8296ZM119.361 33.9406C119.804 33.9689 120.455 34.0066 120.809 34.0254L121.448 34.0662V34.2579L120.841 34.2202C117.329 34.0034 115.606 34.0097 112.628 34.2579C112.325 34.283 112.066 34.305 112.053 34.305C112.04 34.305 112.028 34.2642 112.028 34.2139C112.028 34.1259 112.034 34.1228 112.211 34.1039C112.745 34.0474 114.566 33.928 115.568 33.884C116.137 33.8589 118.593 33.8966 119.361 33.9406ZM123.439 34.2108C124.125 34.261 125.162 34.3396 125.74 34.3867L126.79 34.4746V34.6694L126.35 34.6286C125.797 34.5815 122.693 34.3427 122.206 34.3113L121.843 34.2893L121.833 34.1888L121.824 34.0914L122.007 34.1039C122.108 34.1134 122.753 34.1605 123.439 34.2108ZM111.648 34.2422C111.648 34.349 111.658 34.3458 111.064 34.3993C110.412 34.4589 108.984 34.616 108.073 34.7291C107.593 34.7888 107.191 34.8391 107.179 34.8391C107.169 34.8391 107.16 34.7982 107.16 34.748C107.16 34.66 107.163 34.6568 107.406 34.6223C107.82 34.5626 109.41 34.3773 110.226 34.2924C110.653 34.2485 111.114 34.1982 111.253 34.1825C111.667 34.1385 111.648 34.1354 111.648 34.2422ZM119.361 34.5061C119.804 34.5343 120.455 34.572 120.809 34.5909L121.448 34.6317V49.2585H120.12V38.7031H113.798V49.2585H112.028V34.6883L112.211 34.6694C112.745 34.6129 114.566 34.4935 115.568 34.4495C116.137 34.4244 118.593 34.4621 119.361 34.5061ZM23.8944 37.0444C23.3728 37.9617 22.8702 39.1931 22.5889 40.2581L22.4814 40.6665L22.4751 36.8182H24.0271L23.8944 37.0444ZM63.7868 40.1073C63.7837 42.0393 63.771 43.2394 63.7552 43.054C63.6825 42.1619 63.6541 41.898 63.5814 41.4582C63.3443 40.0225 62.8101 38.4769 62.1178 37.2297C62.0135 37.0381 61.925 36.8716 61.925 36.8653C61.925 36.8559 62.3454 36.8496 62.8575 36.8496H63.79L63.7868 40.1073ZM69.4483 52.6513H65.5918V46.9149L65.9775 46.9526C66.1892 46.9746 66.3663 46.9903 66.3694 46.9872C66.3821 46.9715 66.4769 46.3714 66.4769 46.3118C66.4769 46.2741 66.4516 46.2426 66.4074 46.2332C66.3663 46.2238 66.1671 46.1798 65.9648 46.1327L65.5918 46.0479V37.6036H69.4483V52.6513ZM46.6255 45.6143C50.4093 45.7526 53.9465 45.9568 58.3056 46.2929C59.8545 46.4091 62.4402 46.6259 63.221 46.6982C63.4897 46.7233 63.7299 46.7453 63.7521 46.7453C63.7774 46.7453 63.79 46.7924 63.79 46.8804V47.0154L63.3886 46.9777C59.5542 46.6102 53.6778 46.1735 49.913 45.9756C46.7267 45.8091 44.9659 45.7589 42.3265 45.7589C39.9462 45.7589 38.9884 45.7808 36.3837 45.8971C32.2807 46.0856 26.7867 46.472 21.9725 46.9181C21.3244 46.9777 20.7586 47.028 20.7175 47.028C20.6543 47.028 20.6417 47.0123 20.6417 46.9401V46.8521L21.6153 46.7673C27.4727 46.2426 32.5999 45.8845 36.9369 45.696C37.8504 45.6552 38.7798 45.6238 40.6037 45.5704C41.3118 45.5484 45.7562 45.5829 46.6255 45.6143ZM44.8869 46.1484C49.6822 46.2741 56.0834 46.6824 62.6141 47.2793C63.1768 47.3327 63.673 47.3736 63.7141 47.3736H63.79V52.6576L62.946 52.6356C62.4782 52.6261 57.8125 52.5382 52.5746 52.4471L43.0504 52.2743L32.7706 52.4471C27.1155 52.5382 22.0736 52.6261 21.5679 52.6356L20.6417 52.6576V50.0313C20.6417 47.6249 20.6448 47.405 20.6922 47.405C20.7207 47.405 21.3592 47.3484 22.1084 47.2793C28.8572 46.6636 35.2015 46.2615 40.1928 46.139C41.1095 46.1138 43.8501 46.1201 44.8869 46.1484ZM64.751 46.8395C64.9406 46.8552 65.124 46.8709 65.1556 46.8709C65.2093 46.8709 65.2125 46.984 65.2125 49.7611V52.6513H64.1693V46.7767L64.2895 46.7924C64.3527 46.8018 64.5613 46.8207 64.751 46.8395ZM107.318 49.2899C107.182 49.3841 107.16 49.3873 107.16 49.3213C107.16 49.271 107.179 49.2585 107.264 49.2585C107.343 49.2585 107.356 49.2679 107.318 49.2899ZM126.79 49.2899C126.79 49.3307 126.755 49.3307 126.695 49.2899C126.657 49.2648 126.66 49.2585 126.72 49.2585C126.758 49.2585 126.79 49.271 126.79 49.2899ZM127.959 53.3141C127.959 54.866 127.953 55.2273 127.918 55.2022C127.855 55.1487 127.678 55.1362 125.889 55.0545C118.249 54.7027 115.34 54.7089 107.763 55.0859C106.309 55.1613 106.199 55.1707 106.113 55.2304L106.022 55.2933V51.3947H127.959V53.3141ZM70.9656 59.4369H18.6565L18.6376 59.1447C18.6281 58.9876 18.6059 58.262 18.587 57.5363C18.5712 56.8106 18.5459 56.0284 18.5364 55.799L18.5174 55.3844H70.9656V59.4369ZM121.021 56.1069C122.835 56.1603 124.871 56.2326 126.379 56.2954C127.169 56.3299 127.849 56.3582 127.89 56.3582C127.95 56.3582 127.959 56.3739 127.959 56.4682C127.959 56.6001 128.133 56.597 126.458 56.5153C121.195 56.2671 117.781 56.1917 114.683 56.264C112.277 56.3205 107.087 56.5216 106.237 56.5938L106.022 56.6127V56.3582H106.158C106.23 56.3582 106.945 56.3299 107.744 56.2954C110.131 56.1949 112.385 56.1226 115.015 56.0629C115.827 56.0441 119.933 56.0755 121.021 56.1069ZM119.677 56.6409C121.609 56.6881 123.132 56.7383 123.243 56.754L123.344 56.7698V66.8508L111.478 66.8351L111.06 66.3481L110.64 65.8612L110.637 56.7729L110.962 56.754C111.38 56.7289 113.077 56.6724 114.304 56.6441C115.736 56.6095 118.331 56.6064 119.677 56.6409ZM110.257 61.0767C110.257 63.4454 110.248 65.3743 110.235 65.3617C110.22 65.3491 109.268 64.2245 108.117 62.8674L106.025 60.395L106.022 58.6923V56.9897L106.158 56.9739C106.271 56.9582 107.04 56.9205 109.657 56.8012C109.96 56.7886 110.22 56.7729 110.235 56.7698C110.248 56.7698 110.257 58.7049 110.257 61.0767ZM125.541 56.8451C126.132 56.8734 126.872 56.908 127.185 56.9237C127.498 56.9425 127.801 56.9551 127.858 56.9551H127.959V61.9344C127.959 66.8508 127.959 66.9167 127.899 66.8822C127.858 66.8633 127.137 66.8508 125.781 66.8508H123.724V56.7603L124.097 56.7792C124.299 56.7917 124.95 56.82 125.541 56.8451ZM70.9656 60.0463C70.9656 60.172 70.9561 60.3416 70.9466 60.4233L70.9245 60.5678H18.6913L18.6723 60.3542C18.6597 60.238 18.6502 60.0683 18.6502 59.9772V59.8139H70.9656V60.0463ZM20.7365 61.8087V89.8464H2.10842L2.12739 88.7846C2.14003 88.2034 2.19061 84.0221 2.24435 79.4952C2.29808 74.9684 2.34866 71.0918 2.35814 70.8782L2.37711 70.4949H18.6407L18.6597 69.1975C18.6723 68.4875 18.6818 66.3387 18.6818 64.4224V60.9448L19.5701 60.9511L20.4583 60.9605L20.7365 61.8087ZM35.3405 61.8087V89.8464H25.6993V61.8684L25.8416 61.4474C25.9206 61.215 25.9902 61.0045 25.9996 60.9825C26.0091 60.9511 26.9353 60.9448 30.5389 60.9511L35.0624 60.9605L35.3405 61.8087ZM49.3124 61.8087V89.8464H47.3842V82.8252C47.3842 76.159 47.3873 75.804 47.4411 75.804C47.4695 75.804 47.637 75.7286 47.8109 75.6375L48.127 75.4742L48.1365 74.8207L48.1428 74.1704H41.5046L41.5109 74.8207L41.5204 75.4742L41.8365 75.6375C42.0104 75.7286 42.1779 75.8009 42.2095 75.804C42.2601 75.804 42.2632 76.159 42.2632 82.8252V89.8464H40.3034V61.8684L40.4456 61.4474C40.5247 61.215 40.5942 61.0045 40.6037 60.9825C40.6132 60.9511 41.4762 60.9448 44.8269 60.9511L49.0342 60.9605L49.3124 61.8087ZM63.5403 61.4317L63.6952 61.9029V89.8464H54.2752V61.8684L54.4175 61.4474C54.4965 61.215 54.5661 61.0045 54.5755 60.9825C54.585 60.9511 55.4859 60.9448 58.9884 60.9511L63.3886 60.9605L63.5403 61.4317ZM70.9435 66.3701C70.9561 69.3514 70.9656 75.8543 70.9656 80.821V89.8464H68.6896V61.837L68.8319 61.4317C68.9109 61.2055 68.9836 61.0045 68.9899 60.9825C68.9994 60.9542 69.2239 60.9448 69.9635 60.9448H70.9245L70.9435 66.3701ZM25.5729 61.0296C25.5729 61.0422 25.5286 61.1898 25.4717 61.3595L25.3706 61.6673H21.0842L21.0558 61.5951C21.04 61.5542 20.9925 61.4066 20.9483 61.2652L20.8693 61.0076H23.2211C24.514 61.0076 25.5729 61.017 25.5729 61.0296ZM40.177 61.0296C40.177 61.0422 40.1327 61.1898 40.0758 61.3595L39.9746 61.6673H35.6883L35.6598 61.5951C35.644 61.5542 35.5966 61.4066 35.5523 61.2652L35.4733 61.0076H37.8251C39.118 61.0076 40.177 61.017 40.177 61.0296ZM54.1488 61.0296C54.1488 61.0422 54.1045 61.1898 54.0476 61.3595L53.9465 61.6673H49.6601L49.6317 61.5951C49.6159 61.5542 49.5684 61.4066 49.5242 61.2652L49.4452 61.0076H51.797C53.0899 61.0076 54.1488 61.017 54.1488 61.0296ZM68.56 61.0453C68.56 61.0673 68.5126 61.2118 68.4589 61.3689L68.3577 61.6516H63.9986L63.8975 61.328L63.7963 61.0076H66.1798C68.0669 61.0076 68.5632 61.017 68.56 61.0453ZM25.32 89.8464H21.1158V62.0443H25.32V89.8464ZM39.9241 89.8464H35.7199V62.0443H39.9241V89.8464ZM53.8959 89.8464H49.6917V62.0443H53.8959V89.8464ZM68.3103 89.8464H64.0429V62.0443H68.3103V89.8464ZM110.257 69.1755H71.3449V68.1702H110.257V69.1755ZM127.959 69.1755H110.637V68.1702H127.959V69.1755ZM18.3025 68.5535C18.3025 68.6634 18.293 68.8896 18.2804 69.0561L18.2614 69.364H2.37079V68.3587H18.3025V68.5535ZM110.257 69.8352H71.3449V69.5525H110.257V69.8352ZM127.959 69.8352H110.637V69.5525H127.959V69.8352ZM18.2709 70.1179H2.37079V69.7409H18.2709V70.1179ZM110.257 89.8464H71.3449V70.2122H110.257V89.8464ZM120.05 70.6425L120.183 71.0761V89.8464H110.637V70.2122H119.914L120.05 70.6425ZM127.972 71.2237C127.981 71.7829 128 76.1998 128.01 81.0409L128.026 89.8464H125.146V71.1106L125.443 70.2122H127.956L127.972 71.2237ZM125.02 70.2656C125.02 70.2781 124.975 70.4258 124.918 70.5954L124.817 70.9033L122.668 70.897L120.521 70.8876L120.461 70.7148C120.43 70.6206 120.382 70.4761 120.357 70.3912L120.313 70.2436H122.668C123.961 70.2436 125.02 70.253 125.02 70.2656ZM124.767 89.8464H120.562V71.2803H124.767V89.8464ZM47.7635 75.0815H41.8839V74.5474H47.7635V75.0815Z" fill="#0F372F"></path><path d="M116.564 27.2681C116.279 27.3183 115.966 27.4534 115.742 27.6231L115.521 27.7864L115.511 29.2095L115.505 30.6295H118.413V27.8021L118.252 27.6765C118.018 27.4943 117.86 27.4094 117.607 27.3309C117.357 27.2555 116.82 27.221 116.564 27.2681Z" fill="#0F372F"></path><path d="M41.0715 35.1626C40.0916 35.7532 39.2919 36.2559 39.2919 36.2747C39.2919 36.3061 40.0284 36.3156 42.8638 36.3156C45.7183 36.3156 46.4358 36.3061 46.4358 36.2747C46.4358 36.2464 42.9524 34.1165 42.867 34.0945C42.8575 34.0945 42.0483 34.5752 41.0715 35.1626Z" fill="#0F372F"></path><path d="M42.4687 36.925C41.8492 37.0444 41.3023 37.3365 40.8724 37.7826C40.7586 37.8989 40.6922 37.9743 40.7238 37.9491C40.787 37.902 40.7301 37.8486 42.2475 39.3377L42.8481 39.9283L43.9355 38.8476C44.6214 38.1659 45.0134 37.7544 44.9976 37.7292C44.9849 37.7104 44.8711 37.6098 44.7415 37.5093C44.4539 37.2831 44.0082 37.0601 43.6699 36.9721C43.3443 36.8904 42.769 36.8653 42.4687 36.925Z" fill="#0F372F"></path><path d="M43.1167 40.1953L44.1757 41.2257L45.2315 42.2561L45.3769 42.0582C45.9111 41.3388 46.1197 40.2487 45.8985 39.3345C45.7942 38.901 45.5571 38.3889 45.339 38.1125L45.2821 38.0434L43.1167 40.1953Z" fill="#0F372F"></path><path d="M40.3729 38.4266C39.8198 39.3911 39.785 40.6131 40.275 41.6121C40.3445 41.7535 40.4488 41.9357 40.5057 42.0142L40.6069 42.1556L42.5794 40.1953L41.5552 39.1963C40.9893 38.6497 40.5247 38.2004 40.5184 38.2004C40.5089 38.2004 40.4456 38.3041 40.3729 38.4266Z" fill="#0F372F"></path><path d="M41.8523 41.4519C40.9514 42.3503 40.8661 42.4414 40.9072 42.4917C41.0178 42.6299 41.4382 42.9252 41.7037 43.054C42.1463 43.2708 42.4118 43.3305 42.9429 43.3336C43.4708 43.3368 43.7584 43.2739 44.2073 43.054C44.4791 42.9221 44.9185 42.6205 44.9407 42.5514C44.947 42.5325 44.476 42.055 43.8975 41.4927L42.8417 40.4686L41.8523 41.4519Z" fill="#0F372F"></path><path d="M116.538 36.1585C115.581 36.3313 114.749 36.969 114.13 38.0182L113.953 38.3104L115.457 38.3198C116.282 38.323 117.635 38.323 118.46 38.3198L119.965 38.3104L119.794 38.0245C119.229 37.0758 118.47 36.4349 117.648 36.2182C117.386 36.149 116.776 36.1145 116.538 36.1585Z" fill="#0F372F"></path><path d="M18.6186 56.0441H20.8313V56.9865H22.7912V56.0441H25.889V56.9865H27.8489V56.0441H30.9467V56.9865H32.9065V56.0441H36.0044V56.9865H37.9642V56.0441H41.062V56.9865H43.0219V56.0441H46.1197V56.9865H48.0796V56.0441H51.1774V56.9865H53.1373V56.0441H56.2351V56.9865H58.1949V56.0441H61.2928V56.9865H63.2526V56.0441H66.3504V56.9865H68.3103V56.0441H70.934V55.6671H18.6186V56.0441ZM22.4118 56.6095H21.2106V56.0441H22.4118V56.6095ZM27.4695 56.6095H26.2683V56.0441H27.4695V56.6095ZM32.5272 56.6095H31.326V56.0441H32.5272V56.6095ZM37.5849 56.6095H36.3837V56.0441H37.5849V56.6095ZM42.6426 56.6095H41.4414V56.0441H42.6426V56.6095ZM47.7003 56.6095H46.4991V56.0441H47.7003V56.6095ZM52.7579 56.6095H51.5567V56.0441H52.7579V56.6095ZM57.8156 56.6095H56.6144V56.0441H57.8156V56.6095ZM62.8733 56.6095H61.6721V56.0441H62.8733V56.6095ZM67.931 56.6095H66.7298V56.0441H67.931V56.6095Z" fill="#0F372F"></path><path d="M114.367 64.2119H119.425V59.1856H114.367V64.2119ZM119.045 63.835H114.746V59.5625H119.045V63.835Z" fill="#0F372F"></path><path d="M7.42846 72.6311H8.31356V73.5735H9.70442V72.6311H13.4977V73.5735H14.8885V72.6311H15.8369V72.2541H7.42846V72.6311ZM9.32509 73.1966H8.69288V72.6311H9.32509V73.1966ZM14.5092 73.1966H13.877V72.6311H14.5092V73.1966Z" fill="#0F372F"></path><path d="M8.31989 74.8207L8.32938 75.4742L8.64548 75.6375C8.81934 75.7286 8.98688 75.8009 9.01849 75.804C9.06906 75.804 9.07222 75.8637 9.07222 76.6051V77.4062H14.1931V76.6051C14.1931 75.8637 14.1963 75.804 14.25 75.804C14.2785 75.804 14.446 75.7286 14.6199 75.6375L14.936 75.4742L14.9455 74.8207L14.9518 74.1704H8.31357L8.31989 74.8207ZM14.5725 75.0815H8.6929V74.5474H14.5725V75.0815Z" fill="#0F372F"></path><path d="M9.07222 87.3332H14.1931V77.7831H11.9172V87.239H11.5378V77.7831H9.07222V87.3332Z" fill="#0F372F"></path><path d="M28.2914 65.8455H33.4123V63.458H28.2914V65.8455Z" fill="#0F372F"></path><path d="M28.2914 71.8143H30.757V66.2225H28.2914V71.8143Z" fill="#0F372F"></path><path d="M31.1363 71.8143H33.4123V66.2225H31.1363V71.8143Z" fill="#0F372F"></path><path d="M27.5327 72.5683H28.1017V73.5107H29.4926V72.5683H32.1479V73.5107H33.5387V72.5683H34.1077V72.1913H27.5327V72.5683ZM29.1133 73.1337H28.4811V72.5683H29.1133V73.1337ZM33.1594 73.1337H32.5272V72.5683H33.1594V73.1337Z" fill="#0F372F"></path><path d="M27.5391 74.8207L27.5486 75.4742L27.8647 75.6375C28.0385 75.7286 28.2061 75.8009 28.2377 75.804C28.2882 75.804 28.2914 75.8637 28.2914 76.6051V77.4062H33.4123V76.6051C33.4123 75.8637 33.4155 75.804 33.4692 75.804C33.4977 75.804 33.6652 75.7286 33.839 75.6375L34.1551 75.4742L34.1646 74.8207L34.171 74.1704H27.5327L27.5391 74.8207ZM33.7916 75.0815H27.9121V74.5474H33.7916V75.0815Z" fill="#0F372F"></path><path d="M28.2914 87.3332H33.4123V77.7831H31.1363V87.239H30.757V77.7831H28.2914V87.3332Z" fill="#0F372F"></path><path d="M42.2633 65.8455H47.3842V63.458H42.2633V65.8455Z" fill="#0F372F"></path><path d="M42.2633 71.8143H44.6657V66.2225H42.2633V71.8143Z" fill="#0F372F"></path><path d="M45.045 71.8143H47.3842V66.2225H45.045V71.8143Z" fill="#0F372F"></path><path d="M41.5046 72.5683H42.0736V73.5107H43.4645V72.5683H46.1197V73.5107H47.5106V72.5683H48.0796V72.1913H41.5046V72.5683ZM43.0851 73.1337H42.4529V72.5683H43.0851V73.1337ZM47.1313 73.1337H46.4991V72.5683H47.1313V73.1337Z" fill="#0F372F"></path><path d="M56.2351 65.8455H61.356V63.458H56.2351V65.8455Z" fill="#0F372F"></path><path d="M56.2351 71.8143H58.6691V66.2225H56.2351V71.8143Z" fill="#0F372F"></path><path d="M59.0484 71.8143H61.356V66.2225H59.0484V71.8143Z" fill="#0F372F"></path><path d="M55.4764 72.5683H56.0454V73.5107H57.4363V72.5683H60.0916V73.5107H61.4824V72.5683H62.0514V72.1913H55.4764V72.5683ZM57.057 73.1337H56.4248V72.5683H57.057V73.1337ZM61.1031 73.1337H60.4709V72.5683H61.1031V73.1337Z" fill="#0F372F"></path><path d="M55.4828 74.8207L55.4923 75.4742L55.8084 75.6375C55.9822 75.7286 56.1497 75.8009 56.1814 75.804C56.2319 75.804 56.2351 75.8637 56.2351 76.6051V77.4062H61.356V76.6051C61.356 75.8637 61.3592 75.804 61.4129 75.804C61.4414 75.804 61.6089 75.7286 61.7827 75.6375L62.0989 75.4742L62.1083 74.8207L62.1147 74.1704H55.4764L55.4828 74.8207ZM61.7353 75.0815H55.8558V74.5474H61.7353V75.0815Z" fill="#0F372F"></path><path d="M56.2351 87.3332H61.356V77.7831H59.08V87.239H58.7007V77.7831H56.2351V87.3332Z" fill="#0F372F"></path><path d="M74.0634 72.5683H74.5692V73.5107H75.9601V72.5683H80.5752V73.5107H81.966V72.5683H82.4718V72.1913H74.0634V72.5683ZM75.5807 73.1337H74.9485V72.5683H75.5807V73.1337ZM81.5867 73.1337H80.9545V72.5683H81.5867V73.1337Z" fill="#0F372F"></path><path d="M86.7709 72.5683H87.3398V73.5107H88.7307V72.5683H93.3458V73.5107H94.7367V72.5683H95.1792V72.1913H86.7709V72.5683ZM88.3514 73.1337H87.7192V72.5683H88.3514V73.1337ZM94.3574 73.1337H93.7252V72.5683H94.3574V73.1337Z" fill="#0F372F"></path><path d="M99.415 72.5683H99.9208V73.5107H101.312V72.5683H105.927V73.5107H107.318V72.5683H107.823V72.1913H99.415V72.5683ZM100.932 73.1337H100.3V72.5683H100.932V73.1337ZM106.938 73.1337H106.306V72.5683H106.938V73.1337Z" fill="#0F372F"></path><path d="M74.5692 75.515L74.9296 75.7066C75.2804 75.892 75.2994 75.8982 75.5301 75.8982H75.7704V77.4062H80.8281V77.7831H78.5521V87.239H78.1728V77.7831H75.7704V87.3332H80.8913V75.8982H81.0651C81.2169 75.8982 81.2864 75.8731 81.6025 75.7066L81.966 75.515V74.0762H74.5692V75.515ZM81.5867 75.1443H74.9485V74.4532H81.5867V75.1443Z" fill="#0F372F"></path><path d="M87.3398 75.515L87.7002 75.7066C88.0195 75.8763 88.0827 75.8983 88.2376 75.8983H88.4146V77.4062H93.5355V75.8983H93.7726C94.0033 75.8983 94.0223 75.892 94.3732 75.7066L94.7367 75.515V74.0762H87.3398V75.515ZM94.3574 75.1443H87.7192V74.4532H94.3574V75.1443Z" fill="#0F372F"></path><path d="M99.9208 75.515L100.281 75.7066C100.619 75.8857 100.657 75.8982 100.85 75.8982H101.059V87.3332H106.18V77.7831H103.967V87.239H103.588V77.7831H101.122V77.4062H106.18V75.8982H106.385C106.575 75.8982 106.616 75.8857 106.954 75.7066L107.318 75.515V74.0762H99.9208V75.515ZM106.938 75.1443H100.3V74.4532H106.938V75.1443Z" fill="#0F372F"></path><path d="M88.4146 87.3332H93.5355V77.7831H91.2596V87.239H90.8802V77.7831H88.4146V87.3332Z" fill="#0F372F"></path><path d="M115.125 63.5836H118.729V59.8767H115.125V63.5836Z" fill="#0F372F"></path></svg> 