<?xml version="1.0" encoding="UTF-8"?> <svg xmlns="http://www.w3.org/2000/svg" width="20" height="20" viewBox="0 0 20 20" fill="none"><path d="M10.021 14.3474C4.63498 14.3474 1.56467 10.7569 1.43457 4.7832H4.1341C4.22517 9.16388 6.20916 11.0223 7.78985 11.4079V4.7832H10.3333V8.56335C11.8879 8.399 13.5272 6.6796 14.0736 4.7832H16.617C16.4088 5.76301 15.9925 6.69856 15.4006 7.51401C14.8086 8.33579 14.041 9.02481 13.1629 9.54948C14.1451 10.0236 15.0168 10.7 15.7193 11.5281C16.4153 12.3561 16.9292 13.317 17.2154 14.3474H14.4183C14.1581 13.4497 13.6377 12.6469 12.9092 12.0401C12.1806 11.4332 11.2895 11.0476 10.3398 10.9275V14.3474H10.034H10.021Z" fill="#EEBC6B"></path></svg> 